<svg width="23" height="23" viewBox="0 0 23 23" fill="none" xmlns="http://www.w3.org/2000/svg">
<path d="M11.8777 9.14164L14.5845 6.02034L16.2261 7.89644C16.2361 7.90797 16.25 7.93473 16.25 7.975C16.25 8.01483 16.2364 8.04145 16.2264 8.05318C16.2263 8.05331 16.2262 8.05344 16.2261 8.05356L13.4754 11.1691L13.1832 11.5L13.4754 11.8309L16.2261 14.9464C16.2262 14.9466 16.2263 14.9467 16.2264 14.9468C16.2364 14.9585 16.25 14.9852 16.25 15.025C16.25 15.0653 16.2361 15.092 16.2261 15.1036L14.5845 16.9797L11.8777 13.8584L11.5 13.4228L11.1223 13.8584L8.41553 16.9797L6.77394 15.1036C6.76385 15.092 6.75 15.0653 6.75 15.025C6.75 14.9852 6.76354 14.9586 6.7736 14.9468C6.77372 14.9467 6.77383 14.9466 6.77394 14.9464L9.52462 11.8309L9.81679 11.5L9.52462 11.1691L6.77394 8.05356C6.77383 8.05343 6.77372 8.0533 6.7736 8.05317C6.76354 8.04142 6.75 8.01481 6.75 7.975C6.75 7.93473 6.76385 7.90797 6.77394 7.89644L8.41553 6.02034L11.1223 9.14164L11.5 9.57725L11.8777 9.14164ZM20.0312 0.5H2.96875C1.54507 0.5 0.5 1.79647 0.5 3.25V19.75C0.5 21.2035 1.54507 22.5 2.96875 22.5H20.0312C21.4549 22.5 22.5 21.2035 22.5 19.75V3.25C22.5 1.79647 21.4549 0.5 20.0312 0.5Z" fill="white" stroke="#9000DB"/>
</svg>
