<svg width="586" height="383" viewBox="0 0 586 383" fill="none" xmlns="http://www.w3.org/2000/svg">
<ellipse cx="294.5" cy="223.5" rx="223.5" ry="118.5" fill="white"/>
<path d="M585 221C566 253 559 263 541.409 282.995C513.658 314.539 508 318.5 482.772 335.551C457.654 350.594 427.834 362.527 395.016 370.668C362.197 378.81 327.023 383 291.5 383C255.977 383 220.803 378.81 187.984 370.668C155.166 362.527 125.346 350.594 100.228 335.551C75.1094 320.508 63.4094 305.195 43 282.995C29.4061 263.34 23 260 1 221L75 221C88 249 97.0085 260.554 107 275C124 290 132.453 294.139 150.915 305.195C169.377 316.252 191.294 325.023 215.416 331.006C239.537 336.99 265.391 340.07 291.5 340.07C317.609 340.07 343.463 336.99 367.584 331.006C391.706 325.023 413.623 316.252 432.085 305.195C450.547 294.139 467.948 288 482.772 266.566C492.764 252.12 496 253 512 221H585Z" fill="#AB7D4C"/>
<path d="M586 221C568 181 533.501 139.947 482.772 110.691C432.044 81.4356 363.241 61 291.5 61C219.759 61 150.956 81.4356 100.228 110.691C49.499 139.947 24 176 0 221H74C95 184 113.792 161.481 151.044 139.997C188.295 118.514 238.819 106.445 291.5 106.445C344.181 106.445 394.705 118.514 431.956 139.997C469.208 161.481 493 182 512 221H586Z" fill="#C89864"/>
<circle cx="33.5" cy="220.5" r="6" stroke="black" stroke-width="3"/>
<circle cx="553.5" cy="221.5" r="6" fill="black" fill-opacity="0.01" stroke="black" stroke-width="3"/>
<path d="M39 221L297.608 14L549 221" stroke="black" stroke-width="5"/>
<circle cx="298" cy="9" r="7.5" fill="black" stroke="black" stroke-width="3"/>
<path d="M303.179 273.73L269.369 308H247.059L220.839 281.32L194.849 308H172.309L138.499 273.73V149.07H161.269V267.29L181.969 288.68H188.179L209.339 267.29V149.07H232.109V267.29L253.269 288.68H259.709L280.409 267.98V149.07H303.179V273.73Z" fill="black"/>
<path d="M396.158 308.92L363.498 308C353.071 308 341.954 308.23 330.148 308.69L327.388 296.27C334.748 296.117 339.578 295.35 341.878 293.97C344.331 292.59 345.558 290.597 345.558 287.99V164.71C345.558 161.95 344.484 159.88 342.338 158.5C340.344 157.12 336.281 156.43 330.148 156.43L327.158 144.01C345.558 144.47 356.291 144.7 359.358 144.7L396.158 143.78C432.191 143.78 450.208 156.353 450.208 181.5C450.208 198.367 440.011 210.787 419.618 218.76C431.271 220.907 441.161 225.66 449.288 233.02C457.568 240.227 461.708 249.043 461.708 259.47C461.708 275.11 456.111 287.3 444.918 296.04C433.878 304.627 417.624 308.92 396.158 308.92ZM417.778 186.33C417.778 176.977 415.094 170 409.728 165.4C404.361 160.8 397.614 158.5 389.488 158.5C381.361 158.5 377.298 159.037 377.298 160.11V216.46C377.604 216.613 380.748 216.69 386.728 216.69C396.388 216.69 403.978 213.93 409.498 208.41C415.018 202.89 417.778 195.53 417.778 186.33ZM377.298 281.55C377.298 290.137 382.818 294.43 393.858 294.43C405.051 294.43 413.561 291.363 419.388 285.23C425.214 278.943 428.128 271.583 428.128 263.15C428.128 251.19 424.294 242.527 416.628 237.16C409.114 231.793 400.681 229.11 391.328 229.11C382.128 229.11 377.451 229.187 377.298 229.34V281.55Z" fill="#84421E"/>
<path d="M303.179 273.73L303.89 274.432L304.179 274.14V273.73H303.179ZM269.369 308V309H269.787L270.08 308.702L269.369 308ZM247.059 308L246.345 308.701L246.639 309H247.059V308ZM220.839 281.32L221.552 280.619L220.835 279.89L220.122 280.622L220.839 281.32ZM194.849 308V309H195.27L195.565 308.698L194.849 308ZM172.309 308L171.597 308.702L171.89 309H172.309V308ZM138.499 273.73H137.499V274.14L137.787 274.432L138.499 273.73ZM138.499 149.07V148.07H137.499V149.07H138.499ZM161.269 149.07H162.269V148.07H161.269V149.07ZM161.269 267.29H160.269V267.695L160.55 267.985L161.269 267.29ZM181.969 288.68L181.25 289.375L181.545 289.68H181.969V288.68ZM188.179 288.68V289.68H188.596L188.889 289.383L188.179 288.68ZM209.339 267.29L210.049 267.993L210.339 267.701V267.29H209.339ZM209.339 149.07V148.07H208.339V149.07H209.339ZM232.109 149.07H233.109V148.07H232.109V149.07ZM232.109 267.29H231.109V267.701L231.398 267.993L232.109 267.29ZM253.269 288.68L252.558 289.383L252.851 289.68H253.269V288.68ZM259.709 288.68V289.68H260.123L260.416 289.387L259.709 288.68ZM280.409 267.98L281.116 268.687L281.409 268.394V267.98H280.409ZM280.409 149.07V148.07H279.409V149.07H280.409ZM303.179 149.07H304.179V148.07H303.179V149.07ZM302.467 273.028L268.657 307.298L270.08 308.702L303.89 274.432L302.467 273.028ZM269.369 307H247.059V309H269.369V307ZM247.772 307.299L221.552 280.619L220.125 282.021L246.345 308.701L247.772 307.299ZM220.122 280.622L194.132 307.302L195.565 308.698L221.555 282.018L220.122 280.622ZM194.849 307H172.309V309H194.849V307ZM173.02 307.298L139.21 273.028L137.787 274.432L171.597 308.702L173.02 307.298ZM139.499 273.73V149.07H137.499V273.73H139.499ZM138.499 150.07H161.269V148.07H138.499V150.07ZM160.269 149.07V267.29H162.269V149.07H160.269ZM160.55 267.985L181.25 289.375L182.687 287.985L161.987 266.595L160.55 267.985ZM181.969 289.68H188.179V287.68H181.969V289.68ZM188.889 289.383L210.049 267.993L208.628 266.587L187.468 287.977L188.889 289.383ZM210.339 267.29V149.07H208.339V267.29H210.339ZM209.339 150.07H232.109V148.07H209.339V150.07ZM231.109 149.07V267.29H233.109V149.07H231.109ZM231.398 267.993L252.558 289.383L253.979 287.977L232.819 266.587L231.398 267.993ZM253.269 289.68H259.709V287.68H253.269V289.68ZM260.416 289.387L281.116 268.687L279.701 267.273L259.001 287.973L260.416 289.387ZM281.409 267.98V149.07H279.409V267.98H281.409ZM280.409 150.07H303.179V148.07H280.409V150.07ZM302.179 149.07V273.73H304.179V149.07H302.179ZM396.158 308.92L396.13 309.92L396.144 309.92H396.158V308.92ZM363.498 308L363.526 307L363.512 307H363.498V308ZM330.148 308.69L329.172 308.907L329.353 309.722L330.187 309.689L330.148 308.69ZM327.388 296.27L327.367 295.27L326.147 295.296L326.412 296.487L327.388 296.27ZM341.878 293.97L341.388 293.098L341.375 293.105L341.363 293.113L341.878 293.97ZM342.338 158.5L341.769 159.322L341.783 159.332L341.797 159.341L342.338 158.5ZM330.148 156.43L329.176 156.664L329.36 157.43H330.148V156.43ZM327.158 144.01L327.183 143.01L325.881 142.978L326.186 144.244L327.158 144.01ZM359.358 144.7V145.7H359.37L359.383 145.7L359.358 144.7ZM396.158 143.78V142.78H396.145L396.133 142.78L396.158 143.78ZM419.618 218.76L419.254 217.829L415.983 219.107L419.437 219.743L419.618 218.76ZM449.288 233.02L448.617 233.761L448.624 233.768L448.631 233.774L449.288 233.02ZM444.918 296.04L445.532 296.829L445.533 296.828L444.918 296.04ZM409.728 165.4L409.077 166.159L409.077 166.159L409.728 165.4ZM377.298 216.46H376.298V217.078L376.851 217.354L377.298 216.46ZM409.498 208.41L408.791 207.703L408.791 207.703L409.498 208.41ZM419.388 285.23L420.113 285.919L420.121 285.91L419.388 285.23ZM416.628 237.16L416.047 237.974L416.054 237.979L416.628 237.16ZM377.298 229.34L376.591 228.633L376.298 228.926V229.34H377.298ZM396.186 307.92L363.526 307L363.47 309L396.13 309.92L396.186 307.92ZM363.498 307C353.057 307 341.927 307.23 330.109 307.691L330.187 309.689C341.982 309.23 353.086 309 363.498 309V307ZM331.124 308.473L328.364 296.053L326.412 296.487L329.172 308.907L331.124 308.473ZM327.409 297.27C331.114 297.193 334.211 296.961 336.687 296.568C339.142 296.178 341.076 295.617 342.392 294.827L341.363 293.113C340.379 293.703 338.749 294.215 336.374 294.592C334.02 294.966 331.022 295.194 327.367 295.27L327.409 297.27ZM342.368 294.842C345.105 293.302 346.558 290.992 346.558 287.99H344.558C344.558 290.201 343.557 291.878 341.388 293.098L342.368 294.842ZM346.558 287.99V164.71H344.558V287.99H346.558ZM346.558 164.71C346.558 161.643 345.338 159.24 342.879 157.659L341.797 159.341C343.631 160.52 344.558 162.257 344.558 164.71H346.558ZM342.907 157.678C341.734 156.866 340.051 156.316 337.963 155.962C335.856 155.604 333.246 155.43 330.148 155.43V157.43C333.183 157.43 335.671 157.601 337.628 157.933C339.603 158.269 340.949 158.754 341.769 159.322L342.907 157.678ZM331.12 156.196L328.13 143.776L326.186 144.244L329.176 156.664L331.12 156.196ZM327.133 145.01C345.525 145.469 356.275 145.7 359.358 145.7V143.7C356.307 143.7 345.591 143.47 327.183 143.01L327.133 145.01ZM359.383 145.7L396.183 144.78L396.133 142.78L359.333 143.7L359.383 145.7ZM396.158 144.78C414.089 144.78 427.359 147.914 436.123 154.03C444.821 160.1 449.208 169.199 449.208 181.5H451.208C451.208 168.654 446.586 158.893 437.268 152.39C428.015 145.933 414.26 142.78 396.158 142.78V144.78ZM449.208 181.5C449.208 189.714 446.731 196.809 441.787 202.83C436.83 208.869 429.346 213.883 419.254 217.829L419.982 219.691C430.283 215.664 438.094 210.481 443.333 204.1C448.586 197.701 451.208 190.152 451.208 181.5H449.208ZM419.437 219.743C430.923 221.859 440.639 226.536 448.617 233.761L449.959 232.279C441.684 224.784 431.62 219.954 419.799 217.777L419.437 219.743ZM448.631 233.774C456.706 240.802 460.708 249.35 460.708 259.47H462.708C462.708 248.737 458.429 239.651 449.944 232.266L448.631 233.774ZM460.708 259.47C460.708 274.838 455.226 286.722 444.302 295.252L445.533 296.828C456.996 287.878 462.708 275.382 462.708 259.47H460.708ZM444.304 295.251C433.511 303.645 417.515 307.92 396.158 307.92V309.92C417.734 309.92 434.244 305.608 445.532 296.829L444.304 295.251ZM418.778 186.33C418.778 176.785 416.033 169.487 410.379 164.641L409.077 166.159C414.156 170.513 416.778 177.168 416.778 186.33H418.778ZM410.379 164.641C404.804 159.862 397.815 157.5 389.488 157.5V159.5C397.414 159.5 403.918 161.738 409.077 166.159L410.379 164.641ZM389.488 157.5C385.414 157.5 382.313 157.634 380.214 157.911C379.175 158.048 378.315 158.229 377.691 158.476C377.381 158.599 377.064 158.763 376.809 158.998C376.54 159.247 376.298 159.622 376.298 160.11H378.298C378.298 160.33 378.182 160.453 378.167 160.467C378.167 160.467 378.23 160.414 378.428 160.335C378.82 160.18 379.484 160.025 380.476 159.894C382.441 159.634 385.435 159.5 389.488 159.5V157.5ZM376.298 160.11V216.46H378.298V160.11H376.298ZM376.851 217.354C376.986 217.422 377.116 217.452 377.176 217.465C377.254 217.482 377.336 217.495 377.415 217.505C377.573 217.526 377.768 217.543 377.993 217.558C378.445 217.589 379.07 217.613 379.861 217.632C381.445 217.671 383.736 217.69 386.728 217.69V215.69C383.74 215.69 381.469 215.671 379.91 215.633C379.129 215.614 378.536 215.59 378.126 215.563C377.92 215.549 377.773 215.535 377.677 215.523C377.628 215.516 377.605 215.512 377.601 215.511C377.578 215.506 377.648 215.517 377.745 215.566L376.851 217.354ZM386.728 217.69C396.586 217.69 404.455 214.867 410.205 209.117L408.791 207.703C403.501 212.993 396.189 215.69 386.728 215.69V217.69ZM410.205 209.117C415.946 203.376 418.778 195.744 418.778 186.33H416.778C416.778 195.316 414.09 202.404 408.791 207.703L410.205 209.117ZM376.298 281.55C376.298 286.074 377.765 289.62 380.824 291.999C383.835 294.342 388.236 295.43 393.858 295.43V293.43C388.44 293.43 384.56 292.372 382.052 290.421C379.591 288.507 378.298 285.613 378.298 281.55H376.298ZM393.858 295.43C405.233 295.43 414.042 292.309 420.113 285.919L418.663 284.541C413.08 290.418 404.87 293.43 393.858 293.43V295.43ZM420.121 285.91C426.116 279.442 429.128 271.84 429.128 263.15H427.128C427.128 271.327 424.313 278.445 418.654 284.55L420.121 285.91ZM429.128 263.15C429.128 250.965 425.209 241.946 417.201 236.341L416.054 237.979C423.38 243.107 427.128 251.415 427.128 263.15H429.128ZM417.209 236.346C409.524 230.857 400.887 228.11 391.328 228.11V230.11C400.476 230.11 408.705 232.73 416.047 237.974L417.209 236.346ZM391.328 228.11C386.726 228.11 383.251 228.129 380.904 228.168C379.732 228.187 378.833 228.211 378.213 228.241C377.906 228.255 377.652 228.272 377.463 228.292C377.372 228.301 377.273 228.314 377.183 228.332C377.14 228.34 377.075 228.355 377.003 228.379C376.972 228.39 376.77 228.454 376.591 228.633L378.005 230.047C377.835 230.217 377.652 230.271 377.648 230.272C377.623 230.281 377.604 230.286 377.595 230.288C377.584 230.291 377.577 230.292 377.576 230.293C377.576 230.293 377.602 230.288 377.671 230.281C377.803 230.267 378.012 230.252 378.309 230.238C378.896 230.21 379.77 230.186 380.937 230.167C383.267 230.129 386.729 230.11 391.328 230.11V228.11ZM376.298 229.34V281.55H378.298V229.34H376.298Z" fill="black"/>
</svg>
